<svg width="50" height="36" viewBox="0 0 50 36" fill="none" xmlns="http://www.w3.org/2000/svg">
<path d="M42.75 4.5C42.75 4.5 37.5919 0.4635 31.5 0L30.951 1.098C36.459 2.44575 38.9857 4.37738 41.625 6.75C37.0744 4.42688 32.5811 2.25 24.75 2.25C16.9189 2.25 12.4256 4.42688 7.875 6.75C10.5142 4.37738 13.5203 2.23312 18.549 1.098L18 0C11.6089 0.604125 6.75 4.5 6.75 4.5C6.75 4.5 0.988875 12.8531 0 29.25C5.80725 35.9471 14.625 36 14.625 36L16.4689 33.5419C13.3391 32.454 9.80437 30.5111 6.75 27C10.3927 29.7563 15.8906 32.625 24.75 32.625C33.6094 32.625 39.1073 29.7563 42.75 27C39.6956 30.5111 36.1609 32.454 33.0311 33.5419L34.875 36C34.875 36 43.6927 35.9471 49.5 29.25C48.5111 12.8531 42.75 4.5 42.75 4.5ZM17.4375 24.75C15.2629 24.75 13.5 22.7351 13.5 20.25C13.5 17.7649 15.2629 15.75 17.4375 15.75C19.6121 15.75 21.375 17.7649 21.375 20.25C21.375 22.7351 19.6121 24.75 17.4375 24.75ZM32.0625 24.75C29.8879 24.75 28.125 22.7351 28.125 20.25C28.125 17.7649 29.8879 15.75 32.0625 15.75C34.2371 15.75 36 17.7649 36 20.25C36 22.7351 34.2371 24.75 32.0625 24.75Z" fill="#8C9EFF"/>
</svg>
