<svg width="36" height="36" viewBox="0 0 36 36" fill="none" xmlns="http://www.w3.org/2000/svg">
<path d="M10.8947 0C4.89447 0 0 4.89447 0 10.8947V25.1053C0 31.1047 4.8943 36 10.8947 36H25.1053C31.1049 36 36 31.1049 36 25.1053V10.8947C36 4.8943 31.1047 0 25.1053 0H10.8947ZM10.8947 2.84211H25.1053C29.5685 2.84211 33.1579 6.43054 33.1579 10.8947V25.1053C33.1579 29.5684 29.5684 33.1579 25.1053 33.1579H10.8947C6.43054 33.1579 2.84211 29.5685 2.84211 25.1053V10.8947C2.84211 6.43037 6.43037 2.84211 10.8947 2.84211ZM27.4737 6.63158C26.4268 6.63158 25.5789 7.47947 25.5789 8.52632C25.5789 9.57316 26.4268 10.4211 27.4737 10.4211C28.5205 10.4211 29.3684 9.57316 29.3684 8.52632C29.3684 7.47947 28.5205 6.63158 27.4737 6.63158ZM18 8.52632C12.7849 8.52632 8.52632 12.7849 8.52632 18C8.52632 23.2151 12.7849 27.4737 18 27.4737C23.2151 27.4737 27.4737 23.2151 27.4737 18C27.4737 12.7849 23.2151 8.52632 18 8.52632ZM18 11.3684C21.6788 11.3684 24.6316 14.3212 24.6316 18C24.6316 21.6788 21.6788 24.6316 18 24.6316C14.3212 24.6316 11.3684 21.6788 11.3684 18C11.3684 14.3212 14.3212 11.3684 18 11.3684Z" fill="url(#paint0_linear_22_223)"/>
<defs>
<linearGradient id="paint0_linear_22_223" x1="18" y1="0" x2="18" y2="36" gradientUnits="userSpaceOnUse">
<stop stop-color="#4C66BF"/>
<stop offset="1" stop-color="#D887D0"/>
</linearGradient>
</defs>
</svg>
