<svg width="45" height="36" viewBox="0 0 45 36" fill="none" xmlns="http://www.w3.org/2000/svg">
<path d="M44.301 4.26125C42.6704 4.98537 40.9189 5.47267 39.0805 5.69246C40.9581 4.56794 42.3978 2.78745 43.076 0.66449C41.321 1.70552 39.3753 2.46202 37.3034 2.87094C35.6456 1.10407 33.2841 0 30.6705 0C25.651 0 21.5823 4.07043 21.5823 9.08817C21.5823 9.80037 21.6641 10.4955 21.8174 11.1583C14.2644 10.7801 7.56837 7.16115 3.08391 1.66122C2.30356 3.00383 1.85546 4.56453 1.85546 6.23257C1.85546 9.38464 3.45875 12.167 5.89692 13.7958C4.40778 13.7481 3.00554 13.3392 1.78049 12.6594C1.78049 12.6986 1.78049 12.7343 1.78049 12.7735C1.78049 17.1779 4.91211 20.8513 9.07113 21.6845C8.30953 21.8924 7.50532 22.0031 6.67556 22.0031C6.09115 22.0031 5.52037 21.9452 4.96663 21.8413C6.12353 25.4517 9.48005 28.0806 13.4568 28.1539C10.3473 30.5921 6.42851 32.0454 2.16896 32.0454C1.43632 32.0454 0.712196 32.0028 0 31.9177C4.02272 34.4955 8.79852 36 13.9321 36C30.65 36 39.7893 22.1514 39.7893 10.1411C39.7893 9.74755 39.7808 9.35567 39.7637 8.9655C41.5408 7.68252 43.0828 6.08263 44.301 4.26125Z" fill="#29BAE8"/>
</svg>
