<svg width="36" height="36" viewBox="0 0 36 36" fill="none" xmlns="http://www.w3.org/2000/svg">
<path d="M18 0C8.0595 0 0 8.0595 0 18C0 21.3768 0.948512 24.5251 2.56641 27.2256L0.161133 36L9.12305 33.6475C11.744 35.1376 14.7697 36 18 36C27.9405 36 36 27.9405 36 18C36 8.0595 27.9405 0 18 0ZM11.8389 9.60352C12.1314 9.60352 12.4319 9.60173 12.6914 9.61523C13.0124 9.62273 13.3618 9.64624 13.6963 10.3857C14.0938 11.2647 14.9593 13.4699 15.0703 13.6934C15.1813 13.9169 15.26 14.1802 15.1055 14.4727C14.9585 14.7727 14.882 14.9542 14.666 15.2197C14.4425 15.4777 14.1976 15.7982 13.9951 15.9932C13.7716 16.2167 13.5408 16.4617 13.7988 16.9072C14.0568 17.3527 14.9528 18.8132 16.2773 19.9922C17.9798 21.5132 19.4163 21.9806 19.8633 22.2041C20.3103 22.4276 20.5691 22.3928 20.8271 22.0928C21.0926 21.8003 21.9422 20.7966 22.2422 20.3496C22.5347 19.9026 22.8333 19.98 23.2383 20.127C23.6493 20.274 25.8411 21.3536 26.2881 21.5771C26.7351 21.8006 27.0281 21.9113 27.1406 22.0928C27.2561 22.2803 27.2562 23.1729 26.8857 24.2139C26.5152 25.2534 24.6959 26.2586 23.8799 26.3291C23.0564 26.4056 22.2878 26.6992 18.5273 25.2188C13.9913 23.4323 11.1307 18.7863 10.9072 18.4863C10.6837 18.1938 9.09082 16.0709 9.09082 13.8809C9.09082 11.6834 10.243 10.6072 10.6465 10.1602C11.0575 9.71316 11.5389 9.60352 11.8389 9.60352Z" fill="#07FC02"/>
</svg>
